<?xml version="1.0" encoding="UTF-8"?>
<svg xmlns="http://www.w3.org/2000/svg" version="1.1" viewBox="0 0 1500 450">
  <defs>
    <style>
      .cls-1 {
        fill: #f57d00;
      }

      .cls-2 {
        fill: #2d578f;
      }
    </style>
  </defs>
  <!-- Generator: Adobe Illustrator 28.7.4, SVG Export Plug-In . SVG Version: 1.2.0 Build 166)  -->
  <g>
    <g id="Layer_1">
      <path class="cls-1" d="M739.5,130.2c-21.4-22.9-54.1-34.3-98.1-34.3h-55.5v110.4h31.3v-67.4c0-7.2,5.8-13,13-13h2.8c23.4,0,41.9,2.4,55.8,7.2,13.8,4.8,25.7,14.3,35.7,28.3,9.9,14,14.9,29.7,14.9,47s-3.1,26.4-9.3,37.9c-6.2,11.5-14.6,20.7-25.1,27.7-7.3,4.8-14.9,8.5-22.8,10.9v32c23.1-5.1,41.9-15.1,56.4-30,22.2-22.7,33.2-48.9,33.2-78.5s-10.7-55.4-32.2-78.3Z"/>
      <g>
        <path class="cls-1" d="M1440.6,123.9c-24.3-23.4-53.2-35-86.8-35s-63.8,11.6-88.3,34.8c-24.5,23.2-36.8,51-36.8,83.5s12.1,62.3,36.2,86c24.1,23.7,53.4,35.5,87.8,35.5s64.3-11.7,88.3-35.2c24-23.5,36-52.2,36-86.3s-12.1-59.9-36.4-83.2ZM1417.9,270.5c-17.6,17.4-38.5,26-62.8,26s-48.7-8.5-66.9-25.5c-18.2-17-27.3-37.8-27.3-62.4s8.9-45,26.6-62.3c17.7-17.3,39-25.9,63.9-25.9s48.2,8.5,66.1,25.5c17.9,17,26.9,37.9,26.9,62.8s-8.8,44.5-26.4,61.9Z"/>
        <path class="cls-1" d="M1092.7,242.1c-2.1,4.8-8.9,4.8-11.1,0l-70.3-155.5-53.4,188.9c-2.5,8.8-10.5,14.9-19.6,14.9h-95.3c-5.8-1.4-10.1-6.6-10.1-12.8v-50.4c0-7.6,6.2-13.8,13.8-13.8h80.5v-30.4h-83.7c-5.9,0-10.6-4.8-10.6-10.6v-35.2c0-5.7,4.6-10.3,10.3-10.3h84.1v-30.7h-124.7v225.1h.5v1.2h174.1v-1.2h.2l37-131.5c1.3-4.4,7.4-4.9,9.3-.7l63.7,140.8,61.4-135.1c2.6-5.7,10.9-5.1,12.6,1l35.1,125.5h32.4l-66.3-234.5-69.8,155.5Z"/>
      </g>
      <path class="cls-2" d="M240.5,86.2l66.3,234.5h-32.4l-38.3-136.8c-.6-2.2-3.6-2.4-4.6-.4l-66.3,145.8-66.9-147.8c-.8-1.8-3.5-1.6-4,.3l-39.1,138.9H23L89.3,86.2l72.9,161.2c1.2,2.6,4.8,2.6,5.9,0l72.4-161.2Z"/>
      <path class="cls-2" d="M733.4,311.9l-80.4-51.9v30.8c0,2.9-2.4,5.3-5.3,5.3h-132c-1.4,0-2-1.6-1.1-2.6h0c24-23.5,36-52.3,36-86.3s-12.1-59.9-36.4-83.2c-24.3-23.4-53.2-35-86.8-35s-63.8,11.6-88.3,34.8c-24.5,23.2-36.8,51-36.8,83.5s12.1,62.3,36.2,86c24.1,23.7,53.4,35.5,87.8,35.5s3.1,0,4.7,0h217.2c2.6,0,4.8,2.1,4.8,4.8v30.4l80.4-51.9ZM422.9,296.3c-23.9-1.2-44.3-9.6-61.1-25.4-18.2-17-27.3-37.8-27.3-62.4s8.9-45,26.6-62.3c17.7-17.3,39-25.9,63.9-25.9s48.2,8.5,66.1,25.5c17.9,17,26.9,37.9,26.9,62.8s-8.8,44.5-26.4,61.9c-15.3,15.1-33.2,23.7-53.6,25.6"/>
      <path class="cls-1" d="M585.9,231.3c0,3.1-2.6,5.7-5.7,5.7h-31l51.7,79.5,51.7-79.5h-30.6c-2.7,0-4.9-2.2-4.9-4.9v-25.8h-31.3v24.9Z"/>
    </g>
  </g>
</svg>